<svg width="32" height="32" viewBox="0 0 32 32" fill="none" xmlns="http://www.w3.org/2000/svg">
<rect width="32" height="32" rx="2" fill="white"/>
<path d="M30 7.50879V21.2128C30 21.7921 29.8924 22.33 29.6773 22.8265C29.4786 23.3065 29.189 23.7368 28.8083 24.1175C28.4277 24.4981 27.9891 24.796 27.4926 25.0112C26.996 25.2264 26.4664 25.3339 25.9037 25.3339C25.341 25.3339 24.8113 25.2264 24.3148 25.0112C23.8348 24.796 23.4045 24.4981 23.0239 24.1175C22.6432 23.7368 22.3453 23.3065 22.1301 22.8265C21.915 22.33 21.8074 21.7921 21.8074 21.2128V7.50879H24.3396V20.9645C24.3396 21.5935 24.4886 22.0569 24.7865 22.3548C25.0844 22.6527 25.4568 22.8017 25.9037 22.8017C26.3506 22.8017 26.7229 22.6527 27.0209 22.3548C27.3188 22.0569 27.4677 21.5935 27.4677 20.9645V7.50879H30Z" fill="#5B6B79"/>
<path d="M12.2231 25.1835V22.8002L16.7911 14.1856C17.0229 13.7553 17.1553 13.3829 17.1884 13.0684C17.2215 12.7374 17.238 12.3319 17.238 11.8519C17.238 11.6368 17.2297 11.4133 17.2132 11.1816C17.2132 10.9334 17.1718 10.7182 17.0891 10.5361C17.0063 10.3541 16.8822 10.2051 16.7167 10.0893C16.5512 9.95686 16.3112 9.89066 15.9967 9.89066C15.616 9.89066 15.3099 9.99824 15.0781 10.2134C14.863 10.4286 14.7554 10.743 14.7554 11.1568V12.5967H12.2231V11.2064C12.2231 10.6768 12.3224 10.1803 12.5211 9.71688C12.7197 9.25346 12.9928 8.84797 13.3403 8.5004C13.6713 8.15283 14.0686 7.87975 14.532 7.68114C14.9954 7.46598 15.4919 7.3584 16.0215 7.3584C16.6836 7.3584 17.2463 7.48253 17.7097 7.73079C18.1897 7.9625 18.5869 8.28524 18.9014 8.69901C19.1993 9.11278 19.4144 9.58447 19.5468 10.1141C19.6958 10.6437 19.7703 11.2064 19.7703 11.8023C19.7703 12.2326 19.762 12.5967 19.7455 12.8946C19.7289 13.176 19.6958 13.4491 19.6462 13.7139C19.5965 13.9787 19.5137 14.2435 19.3979 14.5083C19.282 14.7731 19.1248 15.0959 18.9262 15.4765L15.2023 22.6513H19.7703V25.1835H12.2231Z" fill="#5B6B79"/>
<path d="M2 25.185V7.50879H5.74874C7.20521 7.50879 8.30583 7.90601 9.05062 8.70044C9.81195 9.49488 10.1926 10.6203 10.1926 12.0768V20.3439C10.1926 21.999 9.78712 23.2237 8.97614 24.0182C8.1817 24.796 7.03143 25.185 5.52531 25.185H2ZM4.53226 9.89209V22.8017H5.69909C6.41077 22.8017 6.91557 22.6279 7.21348 22.2803C7.5114 21.9162 7.66035 21.3535 7.66035 20.5921V12.0768C7.66035 11.3817 7.51967 10.8438 7.23831 10.4631C6.95695 10.0824 6.44387 9.89209 5.69909 9.89209H4.53226Z" fill="#5B6B79"/>
</svg>
