<svg width="140" height="32" viewBox="0 0 280 64" fill="none" xmlns="http://www.w3.org/2000/svg">
<path d="M146.913 15.3811C146.913 12.8471 147.355 10.6077 148.239 8.66294C149.123 6.71819 150.302 5.09758 151.775 3.80109C153.19 2.56352 154.781 1.62062 156.549 0.972373C158.376 0.324124 160.202 0 162.029 0C163.856 0 165.654 0.324124 167.422 0.972373C169.248 1.62062 170.899 2.56352 172.372 3.80109C173.786 5.09758 174.935 6.71819 175.819 8.66294C176.703 10.6077 177.145 12.8471 177.145 15.3811V48.6185C177.145 51.2704 176.703 53.5393 175.819 55.4251C174.935 57.3109 173.786 58.8726 172.372 60.1101C170.899 61.4066 169.248 62.379 167.422 63.0273C165.654 63.6755 163.856 63.9996 162.029 63.9996C160.202 63.9996 158.376 63.6755 156.549 63.0273C154.781 62.379 153.19 61.4066 151.775 60.1101C150.302 58.8726 149.123 57.3109 148.239 55.4251C147.355 53.5393 146.913 51.2704 146.913 48.6185V15.3811ZM155.93 48.6185C155.93 50.799 156.519 52.4196 157.698 53.4803C158.935 54.4822 160.379 54.9831 162.029 54.9831C163.679 54.9831 165.094 54.4822 166.272 53.4803C167.51 52.4196 168.129 50.799 168.129 48.6185V15.3811C168.129 13.2007 167.51 11.6095 166.272 10.6077C165.094 9.5469 163.679 9.01652 162.029 9.01652C160.379 9.01652 158.935 9.5469 157.698 10.6077C156.519 11.6095 155.93 13.2007 155.93 15.3811V48.6185Z" fill="white"/>
<path d="M107.812 63.4696V0.530767H116.475L130.088 38.4532H130.265V0.530767H139.282V63.4696H130.796L117.006 25.6356H116.829V63.4696H107.812Z" fill="white"/>
<path d="M99.699 0.530767V49.3261C99.699 51.3887 99.3159 53.3039 98.5498 55.0719C97.8427 56.7809 96.8114 58.3131 95.4559 59.6685C94.1005 61.024 92.5388 62.0847 90.7709 62.8508C89.0029 63.6169 87.1171 64 85.1134 64C83.1098 64 81.224 63.6169 79.456 62.8508C77.747 62.0847 76.2148 61.024 74.8594 59.6685C73.5039 58.3131 72.4432 56.7809 71.6771 55.0719C70.9109 53.3039 70.5279 51.3887 70.5279 49.3261V0.530767H79.5444V48.4421C79.5444 50.6815 80.0748 52.3316 81.1356 53.3923C82.1963 54.4531 83.5223 54.9835 85.1134 54.9835C86.7046 54.9835 88.0306 54.4531 89.0913 53.3923C90.1521 52.3316 90.6825 50.6815 90.6825 48.4421V0.530767H99.699Z" fill="white"/>
<path d="M36.4003 63.4692V54.9831L52.6654 24.3093C53.4905 22.777 53.9619 21.4511 54.0798 20.3314C54.1977 19.1527 54.2566 17.7089 54.2566 15.9999C54.2566 15.2338 54.2271 14.4382 54.1682 13.6132C54.1682 12.7292 54.0209 11.9631 53.7262 11.3149C53.4315 10.6666 52.9896 10.1362 52.4002 9.7237C51.8109 9.25225 50.9564 9.01652 49.8367 9.01652C48.4813 9.01652 47.3911 9.39958 46.566 10.1657C45.7999 10.9318 45.4169 12.0515 45.4169 13.5248V18.6518H36.4003V13.7016C36.4003 11.8158 36.7539 10.0478 37.4611 8.39774C38.1683 6.74766 39.1407 5.30384 40.3782 4.06627C41.5568 2.82871 42.9712 1.85634 44.6213 1.14917C46.2714 0.383055 48.0393 0 49.9251 0C52.2824 0 54.286 0.441988 55.9361 1.32596C57.6451 2.151 59.0595 3.30017 60.1792 4.77345C61.24 6.24674 62.0061 7.92629 62.4775 9.8121C63.0079 11.6979 63.2731 13.7016 63.2731 15.8231C63.2731 17.3553 63.2436 18.6518 63.1847 19.7126C63.1258 20.7144 63.0079 21.6868 62.8311 22.6297C62.6543 23.5726 62.3597 24.5155 61.9472 25.4584C61.5346 26.4013 60.9748 27.5505 60.2676 28.9059L47.008 54.4527H63.2731V63.4692H36.4003Z" fill="white"/>
<path d="M0 63.4696V0.530767H13.348C18.534 0.530767 22.4529 1.94512 25.1048 4.77383C27.8157 7.60254 29.1711 11.6099 29.1711 16.7959V46.2322C29.1711 52.1253 27.7273 56.4862 24.8396 59.3149C22.0109 62.0847 17.9152 63.4696 12.5524 63.4696H0ZM9.01652 9.0169V54.9835H13.1712C15.7052 54.9835 17.5027 54.3647 18.5634 53.1271C19.6242 51.8306 20.1546 49.827 20.1546 47.1161V16.7959C20.1546 14.3207 19.6537 12.4055 18.6518 11.05C17.65 9.69461 15.8231 9.0169 13.1712 9.0169H9.01652Z" fill="white"/>
</svg>
