<svg width="44" height="44" viewBox="0 0 44 44" fill="none" xmlns="http://www.w3.org/2000/svg">
<rect width="44" height="44" fill="#5B6B79"/>
<path fill-rule="evenodd" clip-rule="evenodd" d="M22.3992 7.68421C19.6087 7.68421 17.3466 9.94635 17.3466 12.7368C17.3466 15.5273 19.6087 17.7895 22.3992 17.7895C25.1897 17.7895 27.4518 15.5273 27.4518 12.7368C27.4518 9.94635 25.1897 7.68421 22.3992 7.68421ZM15.6624 12.7368C15.6624 9.01619 18.6785 6 22.3992 6C26.1199 6 29.136 9.01619 29.136 12.7368C29.136 16.4575 26.1199 19.4737 22.3992 19.4737C18.6785 19.4737 15.6624 16.4575 15.6624 12.7368Z" fill="white"/>
<path d="M17.3466 12.7368C17.3466 9.94635 19.6087 7.68421 22.3992 7.68421C25.1897 7.68421 27.4518 9.94635 27.4518 12.7368C27.4518 15.5273 25.1897 17.7895 22.3992 17.7895C19.6087 17.7895 17.3466 15.5273 17.3466 12.7368Z" fill="white" fill-opacity="0.2"/>
<path fill-rule="evenodd" clip-rule="evenodd" d="M18.1889 22C13.7039 22 10.0085 25.5701 9.10017 29.8088C8.99423 30.4364 8.91833 31.1919 8.87642 31.7037C8.85543 31.96 8.94543 32.2127 9.12486 32.397V32.397C12.4893 35.8523 17.1943 38 22.3994 38C27.5831 38 32.2709 35.8699 35.6325 32.4395C35.6399 32.4318 35.6474 32.4242 35.6548 32.4166C35.8468 32.22 35.9431 31.95 35.9183 31.6764C35.8725 31.1699 35.7879 30.4432 35.6624 29.8552C34.7655 25.611 31.1049 22 26.6099 22H18.1889ZM33.8587 31.8165C34.0667 31.6233 34.1778 31.3461 34.1497 31.0636C33.7574 27.1211 30.4697 23.6842 26.6099 23.6842H18.1889C14.3198 23.6842 11.0048 27.0952 10.6097 31.0264C10.5814 31.3079 10.6917 31.5842 10.8983 31.7775C13.9093 34.5934 17.9526 36.3158 22.3994 36.3158C26.8257 36.3158 30.8521 34.6093 33.8587 31.8165Z" fill="white"/>
<path d="M26.6099 23.6842C30.4697 23.6842 33.7574 27.1211 34.1497 31.0636C34.1778 31.3461 34.0667 31.6233 33.8587 31.8165C30.8521 34.6093 26.8257 36.3158 22.3994 36.3158C17.9526 36.3158 13.9093 34.5934 10.8983 31.7775C10.6917 31.5842 10.5814 31.3079 10.6097 31.0264C11.0048 27.0952 14.3198 23.6842 18.1889 23.6842H26.6099Z" fill="white" fill-opacity="0.2"/>
</svg>
